# AST/ASF file generated using VICON BodyLanguage
# -----------------------------------------------
:version 1.10
:name VICON
:units
  mass 1.0
  length 0.45
  angle deg
:documentation
   .ast/.asf automatically generated from VICON data using
   VICON BodyBuilder and BodyLanguage model FoxedUp or BRILLIANT.MOD
:root
   order TX TY TZ RX RY RZ
   axis XYZ
   position 0 0 0  
   orientation 0 0 0 
:bonedata
  begin
     id 1 
     name lhipjoint
     direction 0.700308 -0.549349 0.455834 
     length 2.59063 
     axis 0 0 0  XYZ
  end
  begin
     id 2 
     name lfemur
     direction 0.34202 -0.939693 0  
     length 6.31066  
     axis 0 0 20  XYZ
    dof rx ry rz
    limits (-160.0 20.0)
           (-70.0 70.0)
           (-60.0 70.0)
  end
  begin
     id 3 
     name ltibia
     direction 0.34202 -0.939693 0   
     length 7.36093   
     axis 0 0 20   XYZ
    dof rx
    limits (-10.0 170.0)
  end
  begin
     id 4 
     name lfoot
     direction 0.0905332 -0.248738 0.96433   
     length 2.0233   
     axis -90 7.62852e-016 20   XYZ
    dof rx rz
    limits (-45.0 90.0)
           (-70.0 20.0)
  end
  begin
     id 5 
     name ltoes
     direction 1.53573e-011 -4.21855e-011 1   
     length 1.01524   
     axis -90 7.62852e-016 20   XYZ
    dof rx
    limits (-90.0 20.0)
  end
  begin
     id 6 
     name rhipjoint
     direction -0.61416 -0.607328 0.503944   
     length 2.34332  
     axis 0 0 0  XYZ 
  end
  begin
     id 7 
     name rfemur
     direction -0.34202 -0.939693 0   
     length 6.58548   
     axis 0 0 -20   XYZ
    dof rx ry rz
    limits (-160.0 20.0)
           (-70.0 70.0)
           (-70.0 60.0)
  end
  begin
     id 8 
     name rtibia
     direction -0.34202 -0.939693 0   
     length 7.20707   
     axis 0 0 -20   XYZ
    dof rx
    limits (-10.0 170.0)
 end
 begin
     id 9 
     name rfoot
     direction -0.136772 -0.375778 0.916561   
     length 1.92184  
     axis -90 -7.62852e-016 -20   XYZ
    dof rx rz
    limits (-45.0 90.0)
           (-20.0 70.0)
  end
  begin
     id 10 
     name rtoes
     direction -1.53535e-011 -4.21828e-011 1   
     length 0.951089   
     axis -90 -7.62852e-016 -20   XYZ
    dof rx
    limits (-90.0 20.0)
  end
  begin
     id 11 
     name lowerback
     direction -0.0444974 0.988086 -0.147332   
     length 1.9609   
     axis 0 0 0   XYZ
    dof rx ry rz
    limits (-20.0 45.0)
           (-30.0 30.0)
           (-30.0 30.0)
  end
  begin
     id 12 
     name upperback
     direction 0.00613146 0.999513 0.0306081   
     length 1.94944   
     axis 0 0 0   XYZ
    dof rx ry rz
    limits (-20.0 45.0)
           (-30.0 30.0)
           (-30.0 30.0)
  end
  begin
     id 13 
     name thorax
     direction 0.0254621 0.994518 0.101418   
     length 2.0119   
     axis 0 0 0   XYZ
    dof rx ry rz
    limits (-20.0 45.0)
           (-30.0 30.0)
           (-30.0 30.0)
  end
  begin
     id 14 
     name lowerneck
     direction 0.0168698 0.977854 0.208608   
     length 1.6375   
     axis 0 0 0   XYZ
    dof rx ry rz
    limits (-20.0 45.0)
           (-30.0 30.0)
           (-30.0 30.0)
  end
  begin
     id 15 
     name upperneck
     direction -0.0283988 0.989338 -0.142843   
     length 1.6851   
     axis 0 0 0   XYZ
    dof rx ry rz
    limits (-20.0 45.0)
           (-30.0 30.0)
           (-30.0 30.0)
  end
  begin
     id 16
     name head
     direction -0.0129422 0.99741 -0.0707489  
     length 1.69029  
     axis 0 0 0   XYZ
    dof rx ry rz
    limits (-20.0 45.0)
           (-30.0 30.0)
           (-30.0 30.0)
  end
  begin
     id 17 
     name lclavicle
     direction 0.820295 0.564628 -0.0911715  
     length 3.16484  
     axis 0 0 0   XYZ
    dof ry rz
    limits (-20.0 10.0)
           (0.0 20.0)
  end
  begin
     id 18 
     name lhumerus
     direction 1 -4.48969e-011 1.00186e-027   
     length 5.17853   
     axis 180 -30 -90   XYZ
    dof rx ry rz
    limits (-60.0 90.0)
           (-90.0 90.0)
           (-90.0 90.0)
  end
  begin
     id 19
     name lradius
     direction 1 -4.48966e-011 -1.52922e-027   
     length 3.40399   
     axis 180 -30 -90   XYZ
    dof rx
    limits (-10.0 170.0)
  end
  begin
     id 20
     name lwrist
     direction 1 -4.48981e-011 -3.80893e-027   
     length 1.70199   
     axis 1.1049e-015 90 90   XYZ
    dof ry
    limits (-180.0 0.0)
 end
  begin
     id 21 
     name lhand
     direction 1 -4.48957e-011 -7.61786e-027   
     length 0.708964   
     axis 4.86085e-015 90 90   XYZ
    dof rx rz
    limits (-90.0 90.0)
           (-45.0 45.0)
  end
  begin
     id 22 
     name lfingers
     direction 1 -4.48929e-011 -1.52357e-026   
     length 0.571585   
     axis 9.7217e-015 90 90   XYZ
    dof rx
    limits (0.0 90.0)
  end
  begin
     id 23
     name lthumb
     direction 0.707107 -6.34905e-011 0.707107   
     length 0.820685   
     axis -90 45 2.85299e-015   XYZ
    dof rx rz
    limits (-45.0 45.0)
           (-45.0 45.0)
  end
  begin
     id 24 
     name rclavicle
     direction -0.858602 0.463947 -0.218075   
     length 3.35137  
     axis 0 0 0   XYZ 
    dof ry rz
    limits (-10.0 20.0)
           (-20.0 0.0)
  end
  begin
     id 25 
     name rhumerus
     direction -1 -4.48969e-011 -1.98511e-027  
     length 5.42351   
     axis 180 30 90   XYZ
    dof rx ry rz
    limits (-90.0 60.0)
           (-90.0 90.0)
           (-90.0 90.0)
  end
  begin
     id 26 
     name rradius
     direction -1 -4.48961e-011 -2.82624e-027   
     length 3.42066   
     axis 180 30 90   XYZ
    dof rx
    limits (-10.0 170.0)
  end
  begin
     id 27 
     name rwrist
     direction -1 -4.48966e-011 -3.80893e-027   
     length 1.71033   
     axis 1.1049e-015 -90 -90   XYZ
    dof ry
    limits (-180.0 0.0)
  end
  begin
     id 28
     name rhand
     direction -1 -4.48964e-011 -7.61786e-027   
     length 0.743608   
     axis 4.86085e-015 -90 -90   XYZ
    dof rx rz
    limits (-90.0 90.0)
           (-45.0 45.0)
  end
  begin
     id 29
     name rfingers
     direction -1 -4.48961e-011 -1.52357e-026   
     length 0.599516   
     axis 9.7217e-015 -90 -90   XYZ
    dof rx
    limits (0.0 90.0)
  end
  begin
     id 30
     name rthumb
     direction -0.707107 -6.34913e-011 0.707107   
     length 0.860789   
     axis -90 -45 -2.85299e-015   XYZ
    dof rx rz
    limits (-45.0 45.0)
           (-45.0 45.0)
  end
:hierarchy
  begin
    root lhipjoint rhipjoint lowerback
    lhipjoint lfemur
    lfemur ltibia
    ltibia lfoot
    lfoot ltoes
    rhipjoint rfemur
    rfemur rtibia
    rtibia rfoot
    rfoot rtoes
    lowerback upperback
    upperback thorax
    thorax lowerneck lclavicle rclavicle
    lowerneck upperneck
    upperneck head
    lclavicle lhumerus
    lhumerus lradius
    lradius lwrist
    lwrist lhand lthumb
    lhand lfingers
    rclavicle rhumerus
    rhumerus rradius
    rradius rwrist
    rwrist rhand rthumb
    rhand rfingers
  end

#!OML:ASF E:\mmandel\Project 1\Capture day 1\Session 2\Subject.ASF
:FULLY-SPECIFIED
:DEGREES
640
root 6.2296 7.23268 -4.59836 16.0005 73.0453 27.4736
lowerback 39.465 -2.78778 1.69428
upperback 11.572 -1.00121 3.85325
thorax -6.27636 0.0224404 3.52605
lowerneck -10.5991 4.01186 5.32064
upperneck 10.6905 7.35871 -18.5733
head 5.91956 2.72397 -6.18394
rclavicle 2.06736e-014 -6.52014e-014
rhumerus -8.08424 2.67535 -60.0236
rradius 15.5764
rwrist 13.1357
rhand 7.89147 22.0659
rfingers 7.12502
rthumb 33.1238 -4.90805
lclavicle 2.06736e-014 -6.52014e-014
lhumerus 10.0044 -37.4292 42.3117
lradius 43.4002
lwrist 32.3542
lhand -14.7102 -31.6684
lfingers 7.12502
lthumb 11.4443 -2.00077
rfemur -94.1008 -59.2745 10.0942
rtibia 151.387
rfoot -32.4779 21.1441
rtoes -22.143
lfemur -45.6651 76.1241 36.3273
ltibia 148.499
lfoot 2.06094 -64.8108
ltoes 19.6778
641
root 6.23311 7.32444 -4.59496 16.3875 73.2609 27.2589
lowerback 39.1134 -2.7449 1.32779
upperback 11.4668 -1.11065 3.96747
thorax -6.27294 -0.0486254 3.87671
lowerneck -10.2773 4.07258 4.84702
upperneck 10.2781 7.44522 -18.504
head 5.728 2.78963 -6.06562
rclavicle 1.59028e-014 1.59028e-014
rhumerus -6.68199 5.65953 -59.9328
rradius 16.2016
rwrist 10.8093
rhand 7.22863 22.3982
rfingers 7.12502
rthumb 32.4933 -4.70758
lclavicle 1.59028e-014 1.59028e-014
lhumerus 9.0098 -36.6759 43.5713
lradius 43.5949
lwrist 32.2701
lhand -14.5861 -31.6753
lfingers 7.12502
lthumb 11.5639 -2.01434
rfemur -93.7555 -57.6109 10.5517
rtibia 150.672
rfoot -32.3613 20.0941
rtoes -23.24
lfemur -52.3436 75.0661 28.506
ltibia 147.952
lfoot -0.557179 -63.2811
ltoes 17.7101
642
root 6.23942 7.42333 -4.59262 16.8614 73.4254 27.2544
lowerback 38.9161 -2.61422 1.26285
upperback 11.4047 -1.0049 3.87779
thorax -6.28438 -0.0025856 3.77275
lowerneck -10.3276 4.0112 4.87346
upperneck 10.0442 7.30893 -18.4606
head 5.6469 2.73518 -6.06452
rclavicle 1.90833e-014 -3.33958e-014
rhumerus -5.41014 6.7395 -59.9162
rradius 16.5602
rwrist 9.88084
rhand 6.77267 22.631
rfingers 7.12502
rthumb 32.0593 -4.56302
lclavicle 1.90833e-014 -3.33958e-014
lhumerus 9.08416 -36.6271 43.9273
lradius 43.8465
lwrist 32.6475
lhand -14.4418 -31.46
lfingers 7.12502
lthumb 11.7031 -1.8069
rfemur -93.0053 -56.0923 10.7699
rtibia 149.83
rfoot -32.5999 18.6164
rtoes -25.1375
lfemur -56.7329 73.8699 22.6928
ltibia 147.256
lfoot -3.66984 -61.9417
ltoes 15.3456
643
root 6.23769 7.54009 -4.58983 17.4775 73.6533 27.3853
lowerback 38.901 -2.42595 1.12938
upperback 11.2349 -0.837294 3.87515
thorax -6.4764 0.0691206 3.77793
lowerneck -10.4128 3.92176 4.87547
upperneck 10.0158 7.17567 -18.4268
head 5.63503 2.66966 -6.06499
rclavicle 2.22639e-014 8.26944e-014
rhumerus -4.38881 7.93475 -59.7075
rradius 17.1052
rwrist 9.09703
rhand 6.73646 22.6963
rfingers 7.12502
rthumb 32.0248 -4.50462
lclavicle 2.22639e-014 8.26944e-014
lhumerus 9.13011 -36.6573 44.4458
lradius 44.0817
lwrist 33.0671
lhand -14.208 -31.3805
lfingers 7.12502
lthumb 11.9286 -1.74039
rfemur -92.0016 -55.1168 10.7448
rtibia 148.954
rfoot -32.785 17.9211
rtoes -25.7162
lfemur -60.2501 72.8191 17.6079
ltibia 146.374
lfoot -6.40655 -60.6229
ltoes 13.7473
644
root 6.23608 7.63764 -4.58937 18.123 73.9316 27.4228
lowerback 38.7085 -2.31646 1.04355
upperback 11.0318 -0.763491 3.87157
thorax -6.64302 0.0937517 3.79117
lowerneck -10.2385 3.816 4.71391
upperneck 9.86493 7.00532 -18.2605
head 5.52375 2.60607 -5.99711
rclavicle -7.4743e-014 8.26944e-014
rhumerus -3.46904 9.44438 -59.4578
rradius 17.7011
rwrist 8.51786
rhand 6.76672 22.9862
rfingers 7.12502
rthumb 32.0536 -4.20895
lclavicle -7.4743e-014 8.26944e-014
lhumerus 8.90258 -36.5611 45.1977
lradius 44.1812
lwrist 33.2832
lhand -13.8869 -31.4931
lfingers 7.12502
lthumb 12.2382 -1.87112
rfemur -91.4838 -54.5093 10.7441
rtibia 148.374
rfoot -32.7169 18.084
rtoes -25.0113
lfemur -65.3379 70.5661 11.2987
ltibia 145.687
lfoot -7.05444 -58.7499
ltoes 13.1781
645
root 6.23547 7.73754 -4.58737 18.6357 74.1254 27.3668
lowerback 38.3176 -2.22357 1.11442
upperback 11.0194 -0.672812 3.68538
thorax -6.53403 0.1358 3.51689
lowerneck -10.3338 3.66998 4.78748
upperneck 9.72288 6.73617 -18.0748
head 5.45779 2.48774 -5.97039
rclavicle -3.49861e-014 5.08889e-014
rhumerus -2.33831 10.3315 -59.4004
rradius 17.9465
rwrist 8.6038
rhand 6.3211 23.9242
rfingers 7.12502
rthumb 31.6292 -3.35545
lclavicle -3.49861e-014 5.08889e-014
lhumerus 9.15465 -36.4858 45.4123
lradius 44.2842
lwrist 33.6008
lhand -13.2545 -31.5884
lfingers 7.12502
lthumb 12.8479 -2.00385
rfemur -90.9063 -53.6947 10.7466
rtibia 147.764
rfoot -32.6378 18.2437
rtoes -24.2395
lfemur -68.6062 68.3247 6.84702
ltibia 144.933
lfoot -6.19851 -57.1746
ltoes 13.9013
646
root 6.23471 7.8603 -4.58229 19.0575 74.3631 27.3363
lowerback 37.9677 -2.13805 1.27671
upperback 11.1415 -0.549028 3.43557
thorax -6.28969 0.202881 3.11491
lowerneck -10.865 3.56797 5.09845
upperneck 9.72791 6.52988 -18.0203
head 5.53465 2.37244 -6.02138
rclavicle -4.13472e-014 2.06736e-014
rhumerus -1.12177 11.0828 -59.3455
rradius 18.1692
rwrist 8.78766
rhand 5.72543 24.822
rfingers 7.12502
rthumb 31.0617 -2.56771
lclavicle -4.13472e-014 2.06736e-014
lhumerus 9.83406 -36.4494 45.2763
lradius 44.4018
lwrist 33.9817
lhand -12.9053 -31.6291
lfingers 7.12502
lthumb 13.1845 -2.06602
rfemur -89.915 -52.4594 10.6503
rtibia 146.851
rfoot -32.4414 18.2056
rtoes -23.4089
lfemur -70.7251 65.7275 3.27296
ltibia 143.909
lfoot -5.54312 -55.5559
ltoes 14.9677
647
root 6.23333 7.9816 -4.57785 19.3208 74.5644 27.0636
lowerback 37.6601 -1.97094 1.54042
upperback 11.1574 -0.285545 3.26639
thorax -6.18049 0.332874 2.69681
lowerneck -11.3275 3.42041 5.20236
upperneck 9.80939 6.30236 -17.9214
head 5.61189 2.24396 -6.0263
rclavicle -4.29375e-014 -4.6118e-014
rhumerus -0.140852 11.7513 -59.0674
rradius 18.5272
rwrist 9.12884
rhand 5.50231 25.0321
rfingers 7.12502
rthumb 30.849 -2.39802
lclavicle -4.29375e-014 -4.6118e-014
lhumerus 10.5628 -36.6394 45.3745
lradius 44.4254
lwrist 34.1732
lhand -12.6986 -31.5039
lfingers 7.12502
lthumb 13.3837 -1.95374
rfemur -89.3136 -50.4673 10.778
rtibia 145.884
rfoot -31.7834 17.9564
rtoes -22.232
lfemur -72.5769 63.513 0.227199
ltibia 142.94
lfoot -6.71966 -53.9293
ltoes 14.1055
648
root 6.22578 8.10878 -4.57231 19.0057 74.8565 26.1825
lowerback 37.5234 -1.78573 1.69889
upperback 10.9635 -0.00527783 3.43294
thorax -6.36062 0.454318 2.68664
lowerneck -11.2066 3.23839 4.6997
upperneck 9.81296 6.12375 -17.7691
head 5.55005 2.15665 -5.90549
rclavicle 4.29375e-014 3.02153e-014
rhumerus 0.671414 12.958 -58.3441
rradius 18.9948
rwrist 9.54387
rhand 5.35593 25.2545
rfingers 7.12502
rthumb 30.7094 -2.20193
lclavicle 4.29375e-014 3.02153e-014
lhumerus 10.5208 -36.6223 46.4213
lradius 44.3883
lwrist 34.1527
lhand -11.8596 -31.0646
lfingers 7.12502
lthumb 14.1923 -1.56944
rfemur -88.5152 -48.5056 11.1376
rtibia 144.826
rfoot -31.3302 17.6036
rtoes -20.8969
lfemur -74.1453 61.3954 -2.19745
ltibia 141.985
lfoot -8.06946 -52.271
ltoes 12.5056
649
root 6.22204 8.20527 -4.56812 18.9481 75.1505 25.6336
lowerback 37.4803 -1.66212 1.12224
upperback 10.7003 -0.0303949 3.90465
thorax -6.64589 0.413837 3.5004
lowerneck -10.5112 3.2443 3.63276
upperneck 9.50828 6.24998 -17.6249
head 5.3157 2.24264 -5.66083
rclavicle 2.8625e-014 -4.92986e-014
rhumerus 1.9163 15.4247 -57.2902
rradius 19.4483
rwrist 9.61641
rhand 4.90788 26.0984
rfingers 7.12502
rthumb 30.2821 -1.4374
lclavicle 2.8625e-014 -4.92986e-014
lhumerus 9.17678 -35.7184 48.4754
lradius 44.23
lwrist 34.104
lhand -12.2112 -30.9846
lfingers 7.12502
lthumb 13.8535 -1.46599
rfemur -87.961 -46.8993 11.4741
rtibia 144.025
rfoot -31.364 16.7294
rtoes -21.2123
lfemur -75.2403 59.1409 -4.03054
ltibia 141.266
lfoot -7.98672 -50.6849
ltoes 13.4366
650
root 6.22296 8.31367 -4.56469 19.7146 75.3506 25.8924
lowerback 37.1092 -1.43043 1.74845
upperback 10.8573 0.398185 3.27872
thorax -6.34936 0.640709 2.34651
lowerneck -11.6341 2.90851 4.77273
upperneck 9.96622 5.62071 -17.4155
head 5.59949 1.90505 -5.84868
rclavicle -2.22639e-014 4.13472e-014
rhumerus 2.69081 13.4184 -57.8076
rradius 19.1107
rwrist 11.1876
rhand 4.3234 27.3467
rfingers 7.12502
rthumb 29.7244 -0.290136
lclavicle -2.22639e-014 4.13472e-014
lhumerus 11.2233 -36.5947 47.2446
lradius 44.2336
lwrist 34.8333
lhand -11.9661 -30.796
lfingers 7.12502
lthumb 14.0897 -1.29366
rfemur -87.4484 -45.4929 11.6098
rtibia 143.139
rfoot -31.4984 15.6668
rtoes -22.3827
lfemur -75.8995 56.7313 -5.92834
ltibia 140.402
lfoot -7.92272 -49.0825
ltoes 15.4175
651
root 6.2234 8.42614 -4.56341 19.9719 75.469 25.7023
lowerback 36.9962 -1.46521 -0.163343
upperback 10.5941 -0.226724 4.44685
thorax -6.59748 0.285094 4.82761
lowerneck -10.465 3.50658 2.4816
upperneck 9.0975 6.79114 -17.9173
head 5.22562 2.48517 -5.50426
rclavicle 9.54166e-015 -1.59028e-014
rhumerus 5.17491 19.7023 -55.3388
rradius 20.1063
rwrist 9.13417
rhand 4.18565 27.4834
rfingers 7.12502
rthumb 29.5929 -0.176803
lclavicle 9.54166e-015 -1.59028e-014
lhumerus 7.2829 -33.4294 51.6345
lradius 43.8025
lwrist 34.1302
lhand -11.3977 -30.8332
lfingers 7.12502
lthumb 14.6374 -1.3698
rfemur -86.698 -43.7915 11.597
rtibia 142.119
rfoot -31.2576 15.0936
rtoes -22.1582
lfemur -76.1837 54.2303 -7.3294
ltibia 139.538
lfoot -9.03741 -47.393
ltoes 14.934
652
root 6.2224 8.54178 -4.56216 19.7429 75.5215 25.0085
lowerback 37.0383 -1.30432 -1.43126
upperback 10.2777 -0.42491 5.16461
thorax -6.95149 0.160828 6.35276
lowerneck -9.47968 3.8768 1.36206
upperneck 8.39513 7.39411 -18.2988
head 4.88762 2.82668 -5.38847
rclavicle 1.59028e-015 9.54166e-015
rhumerus 6.95475 23.9634 -53.4452
rradius 20.9206
rwrist 7.70708
rhand 3.96644 27.5526
rfingers 7.12502
rthumb 29.3837 -0.144507
lclavicle 1.59028e-015 9.54166e-015
lhumerus 4.90428 -31.3588 54.421
lradius 43.4675
lwrist 33.4714
lhand -11.5082 -30.9879
lfingers 7.12502
lthumb 14.5309 -1.51676
rfemur -86.026 -41.892 11.7531
rtibia 141.091
rfoot -31.0115 14.5841
rtoes -21.8744
lfemur -76.2728 52.5543 -8.33023
ltibia 138.664
lfoot -10.2076 -46.0651
ltoes 13.6631
653
root 6.21779 8.70459 -4.55863 19.3668 75.5477 24.0644
lowerback 36.9544 -1.0869 -3.02604
upperback 9.86063 -0.670228 6.01804
thorax -7.49004 0.0254686 8.23045
lowerneck -8.02567 4.3117 0.333595
upperneck 7.9047 8.06461 -18.8028
head 4.54314 3.22073 -5.34207
rclavicle 7.95139e-015 -4.6118e-014
rhumerus 8.6859 28.6914 -51.3222
rradius 21.8235
rwrist 6.06766
rhand 3.68472 27.6873
rfingers 7.12502
rthumb 29.1147 -0.0567018
lclavicle 7.95139e-015 -4.6118e-014
lhumerus 1.89739 -29.0332 57.4269
lradius 43.2125
lwrist 32.5912
lhand -12.348 -31.3755
lfingers 7.12502
lthumb 13.7216 -1.84792
rfemur -85.1028 -39.8953 12.2058
rtibia 139.689
rfoot -31.0602 13.629
rtoes -22.3419
lfemur -76.0833 51.7464 -9.36969
ltibia 137.35
lfoot -11.2898 -45.1199
ltoes 12.8659
654
root 6.21498 8.83112 -4.558 19.4344 75.7413 23.5996
lowerback 36.4538 -0.869478 0.342369
upperback 10.3027 0.556867 3.80749
thorax -6.77079 0.655182 3.58851
lowerneck -10.9535 3.23231 3.81486
upperneck 9.27854 6.23561 -18.0084
head 5.34315 2.21464 -5.81303
rclavicle -5.40694e-014 3.18055e-015
rhumerus 7.14037 21.1004 -54.7101
rradius 20.7259
rwrist 8.90188
rhand 2.70602 29.1145
rfingers 7.12502
rthumb 28.1796 1.21264
lclavicle -5.40694e-014 3.18055e-015
lhumerus 7.83382 -33.8013 52.4854
lradius 43.5727
lwrist 34.1141
lhand -13.1763 -31.0544
lfingers 7.12502
lthumb 12.9233 -1.47455
rfemur -84.441 -38.4926 12.4867
rtibia 138.555
rfoot -31.0596 12.8792
rtoes -22.4722
lfemur -76.2345 49.4962 -10.4625
ltibia 136.316
lfoot -12.2455 -43.4333
ltoes 11.9408
